{
  "title": "Donnie Brasco (1997) 720p BrRip x264 YIFY",
  "uid": 8842427,
  "size": 1033384188,
  "categoryP": "video",
  "categoryS": "hd___movies",
  "magnet": "?xt=urn:btih:3daab9b3421206cd21a7776f26c11d8980e3731d&amp;dn=Donnie+Brasco+%281997%29+720p+BrRip+x264+YIFY&amp;tr=udp%3A%2F%2Ftracker.openbittorrent.com%3A80&amp;tr=udp%3A%2F%2Fopen.demonii.com%3A1337&amp;tr=udp%3A%2F%2Ftracker.coppersurfer.tk%3A6969&amp;tr=udp%3A%2F%2Fexodus.desync.com%3A6969",
  "seeders": 52,
  "leechers": 13,
  "uploader": "PIRATE300",
  "files": -1,
  "time": 1377282725,
  "description": "Donnie Brasco (1997)\n\nReleased: 28 Feb 1997\nRated: R\nRuntime: 2 h 7 min\nGenre: Biography, Crime, Drama, Thriller\n\n\nThis true story follows FBI agent Joe Pistone as he infiltrates the mafia of New York. Befriending Lefty Ruggiero, Pistone (under the name Donnie Brasco) is able to embed himself in a mafia faction lead by Sonny Black. Ruggiero and Pistone become tight as the group goes about collecting money for 'the bosses'. Eventually, the group become big time when Black himself becomes a boss, all the while Pistone collects evidence. However, the trials and tribulations of the undercover work become more than Pistone can bear. His marriage falls apart and to top it off, the mafia suspect a mole in the organization. The real dilemma is afforded to Pistone, who knows if he walks away from the mafia, Ruggiero will be the one punished.\n\nGeneral\nFormat                                   : MPEG-4\nFormat profile                           : Base Media\nCodec ID                                 : isom\nFile size                                : 985 MiB\nDuration                                 : 2h 27mn\nOverall bit rate mode                    : Variable\nOverall bit rate                         : 936 Kbps\n\nVideo\nID                                       : 1\nFormat                                   : AVC\nFormat/Info                              : Advanced Video Codec\nFormat profile                           : &lt;a class=&quot;__cf_email__&quot; href=&quot;/cdn-cgi/l/email-protection&quot; data-cfemail=&quot;6820010f0028245c4659&quot;&gt;[email&amp;#160;protected]&lt;/a&gt;&lt;script cf-hash='f9e31' type=&quot;text/javascript&quot;&gt;\n/* &lt;![CDATA[ */!function(){try{var t=&quot;currentScript&quot;in document?document.currentScript:function(){for(var t=document.getElementsByTagName(&quot;script&quot;),e=t.length;e--;)if(t[e].getAttribute(&quot;cf-hash&quot;))return t[e]}();if(t&amp;&amp;t.previousSibling){var e,r,n,i,c=t.previousSibling,a=c.getAttribute(&quot;data-cfemail&quot;);if(a){for(e=&quot;&quot;,r=parseInt(a.substr(0,2),16),n=2;a.length-n;n+=2)i=parseInt(a.substr(n,2),16)^r,e+=String.fromCharCode(i);e=document.createTextNode(e),c.parentNode.replaceChild(e,c)}}}catch(u){}}();/* ]]&gt; */&lt;/script&gt;\nFormat settings, CABAC                   : Yes\nFormat settings, ReFrames                : 5 frames\nCodec ID                                 : avc1\nCodec ID/Info                            : Advanced Video Coding\nDuration                                 : 2h 27mn\nBit rate                                 : 836 Kbps\nMaximum bit rate                         : 4 477 Kbps\nWidth                                    : 1 280 pixels\nHeight                                   : 532 pixels\nDisplay aspect ratio                     : 2.40:1\nFrame rate mode                          : Constant\nFrame rate                               : 23.976 fps\nColor space                              : YUV\nChroma subsampling                       : 4:2:0\nBit depth                                : 8 bits\nScan type                                : Progressive\nBits/(Pixel*Frame)                       : 0.051\nStream size                              : 880 MiB (89%)\nWriting library                          : x264 core\n\nAudio\nID                                       : 2\nFormat                                   : AAC\nFormat/Info                              : Advanced Audio Codec\nFormat profile                           : LC\nCodec ID                                 : 40\nDuration                                 : 2h 27mn\nBit rate mode                            : Variable\nBit rate                                 : 96.0 Kbps\nMaximum bit rate                         : 117 Kbps\nChannel(s)                               : 2 channels\nChannel positions                        : Front: L R\nSampling rate                            : 48.0 KHz\nCompression mode                         : Lossy\nStream size                              : 101 MiB (10%)\nLanguage                                 : English\n\nSCREENS\n &lt;a href=&quot;\nhttp://i.imgur.com/EFz95Mm.jpg&quot; rel=&quot;nofollow&quot; target=&quot;_NEW&quot;&gt;\nhttp://i.imgur.com/EFz95Mm.jpg&lt;/a&gt;\n &lt;a href=&quot;\nhttp://i.imgur.com/lsrkV5Y.jpg&quot; rel=&quot;nofollow&quot; target=&quot;_NEW&quot;&gt;\nhttp://i.imgur.com/lsrkV5Y.jpg&lt;/a&gt;\n &lt;a href=&quot;\nhttp://i.imgur.com/BeGVywy.jpg&quot; rel=&quot;nofollow&quot; target=&quot;_NEW&quot;&gt;\nhttp://i.imgur.com/BeGVywy.jpg&lt;/a&gt;\n\n+-+-+-+-+-+-+-+-+-+\n|P|I|R|A|T|E|3|0|0|\n+-+-+-+-+-+-+-+-+-+\n &lt;a href=&quot;\nhttp://thepiratebay.se/user/PIRATE300/&quot; rel=&quot;nofollow&quot; target=&quot;_NEW&quot;&gt;\nhttp://thepiratebay.se/user/PIRATE300/&lt;/a&gt;",
  "parsed": {
    "xt": "urn:btih:3daab9b3421206cd21a7776f26c11d8980e3731d",
    "dn": "Donnie Brasco (1997) 720p BrRip x264 YIFY",
    "tr": [
      "udp://exodus.desync.com:6969",
      "udp://open.demonii.com:1337",
      "udp://tracker.coppersurfer.tk:6969",
      "udp://tracker.openbittorrent.com:80"
    ],
    "infoHash": "3daab9b3421206cd21a7776f26c11d8980e3731d",
    "infoHashBuffer": {
      "type": "Buffer",
      "data": [
        61,
        170,
        185,
        179,
        66,
        18,
        6,
        205,
        33,
        167,
        119,
        111,
        38,
        193,
        29,
        137,
        128,
        227,
        115,
        29
      ]
    },
    "name": "Donnie Brasco (1997) 720p BrRip x264 YIFY",
    "announce": [
      "udp://exodus.desync.com:6969",
      "udp://open.demonii.com:1337",
      "udp://tracker.coppersurfer.tk:6969",
      "udp://tracker.openbittorrent.com:80"
    ],
    "urlList": []
  },
  "previous": 65,
  "peers": 50,
  "last_updated": "2016-12-24T22:51:49.780Z"
}